HIERARCHY
ROOT Hips
{
  OFFSET 0.000000 0.000000 0.000000
  CHANNELS 6 Xposition Yposition Zposition Xrotation Yrotation Zrotation
  JOINT Spine
  {
    OFFSET 0.377155 22.431597 -3.484962
    CHANNELS 3 Xrotation Yrotation Zrotation
    JOINT Chest
    {
      OFFSET 0.377155 22.431597 -3.484962
      CHANNELS 3 Xrotation Yrotation Zrotation
      JOINT Neck
      {
        OFFSET 0.088870 8.284610 -4.317105
        CHANNELS 3 Xrotation Yrotation Zrotation
        JOINT Head
        {
          OFFSET 1.127721 7.011547 -8.309438
          CHANNELS 3 Xrotation Yrotation Zrotation
          End Site
          {
            OFFSET 0.338316 2.103464 -2.492831
          }
        }
      }
      JOINT LeftShoulder
      {
        OFFSET 16.394990 -0.592048 1.929974
        CHANNELS 3 Xrotation Yrotation Zrotation
        JOINT LeftArm
        {
          OFFSET 3.008246 -21.809778 -11.106493
          CHANNELS 3 Xrotation Yrotation Zrotation
          JOINT LeftForeArm
          {
            OFFSET -8.932164 6.293255 -23.332103
            CHANNELS 3 Xrotation Yrotation Zrotation
            JOINT LeftHand
            {
              OFFSET -2.602157 1.901300 -2.796597
              CHANNELS 3 Xrotation Yrotation Zrotation
              End Site
              {
                OFFSET -0.780647 0.570390 -0.838979
              }
            }
          }
        }
      }
      JOINT RightShoulder
      {
        OFFSET -16.394990 0.592048 -1.929974
        CHANNELS 3 Xrotation Yrotation Zrotation
        JOINT RightArm
        {
          OFFSET -5.622256 -21.790075 -9.561533
          CHANNELS 3 Xrotation Yrotation Zrotation
          JOINT RightForeArm
          {
            OFFSET 14.207961 4.269886 -20.578508
            CHANNELS 3 Xrotation Yrotation Zrotation
            JOINT RightHand
            {
              OFFSET 3.836391 1.601913 -2.407667
              CHANNELS 3 Xrotation Yrotation Zrotation
              End Site
              {
                OFFSET 1.150917 0.480574 -0.722300
              }
            }
          }
        }
      }
    }
  }
  JOINT LeftUpLeg
  {
    OFFSET 11.619440 -0.280544 0.681345
    CHANNELS 3 Xrotation Yrotation Zrotation
    JOINT LeftLeg
    {
      OFFSET 10.382547 -38.747626 -12.427199
      CHANNELS 3 Xrotation Yrotation Zrotation
      JOINT LeftFoot
      {
        OFFSET 16.828658 -37.208288 8.397387
        CHANNELS 3 Xrotation Yrotation Zrotation
        End Site
        {
          OFFSET 5.048597 -11.162486 2.519216
        }
      }
    }
  }
  JOINT RightUpLeg
  {
    OFFSET -11.619440 0.280544 -0.681345
    CHANNELS 3 Xrotation Yrotation Zrotation
    JOINT RightLeg
    {
      OFFSET -11.480243 -35.113876 0.294658
      CHANNELS 3 Xrotation Yrotation Zrotation
      JOINT RightFoot
      {
        OFFSET -8.384327 -35.738078 15.333431
        CHANNELS 3 Xrotation Yrotation Zrotation
        End Site
        {
          OFFSET -2.515298 -10.721423 4.600029
        }
      }
    }
  }
}
MOTION
Frames: 7
Frame Time: 0.083333
-0.009918 59.999929 5.570293 -0.235031 -0.020683 -0.223164 0.000000 0.000000 0.000000 -0.785584 -1.858688 -3.138154 -1.238499 -1.900341 0.328492 5.000000 0.000000 0.000000 14.875544 -0.569053 7.928635 0.870171 1.703591 -7.440084 -21.069235 29.688002 48.337012 0.000000 0.000000 0.000000 8.834135 -8.658661 17.439374 11.289831 6.929049 -14.910533 -37.912268 -18.085547 -51.605636 0.000000 0.000000 0.000000 -2.141444 0.244573 -7.377407 6.121108 0.277801 4.892633 0.000000 0.000000 0.000000 9.938223 -3.029720 7.884015 -4.504063 3.976597 -5.894083 0.000000 0.000000 0.000000
-0.009442 59.999004 5.412454 -3.136508 0.186623 0.728890 0.000000 0.000000 0.000000 1.359889 -1.361137 -2.744383 -1.431081 -0.715433 0.318817 5.000000 0.000000 0.000000 18.237803 -4.693960 8.739257 -4.041435 6.132925 -9.004966 0.000000 0.000000 0.000000 0.000000 0.000000 0.000000 8.505708 -7.313841 9.093664 10.149364 5.677216 -8.336051 -45.806225 -16.335146 -51.299419 0.000000 0.000000 0.000000 -4.663615 -0.254834 -9.008940 6.774067 0.727379 6.292352 0.000000 0.000000 0.000000 9.911824 -3.789276 6.393271 -2.142795 3.606128 -4.859746 0.000000 0.000000 0.000000
-0.008918 59.997636 5.425971 -2.293005 0.395249 2.236958 0.000000 0.000000 0.000000 0.516867 -0.016484 -1.574497 -1.674388 0.961168 -0.187979 5.000000 0.000000 0.000000 23.804162 -8.346654 9.063686 -13.546642 11.108662 -9.312354 95.493121 21.364014 62.430419 0.000000 0.000000 0.000000 6.120077 -5.751473 0.915213 11.434679 4.265242 -1.853277 -54.034803 -13.906772 -51.181330 0.000000 0.000000 0.000000 -11.726187 0.078071 -10.731888 8.394625 1.782291 7.535106 0.000000 0.000000 0.000000 4.343442 -3.720358 4.569424 -2.346762 3.892960 -4.325933 0.000000 0.000000 0.000000
-0.008179 59.996224 5.708448 3.439150 0.359973 3.914176 0.000000 0.000000 0.000000 -3.629808 1.737522 -0.545879 -1.849071 2.366780 -0.765018 5.000000 0.000000 0.000000 27.685752 -5.305190 3.241065 -19.310055 6.075568 -5.908564 0.000000 0.000000 0.000000 0.000000 0.000000 0.000000 4.266062 -5.162249 -3.295604 13.055077 4.395165 1.334653 -59.122862 -12.323651 -51.518887 0.000000 0.000000 0.000000 -19.500768 1.034218 -12.680599 12.840386 4.450632 8.319635 0.000000 0.000000 0.000000 -2.597715 -3.162404 2.132193 -0.743540 3.500676 -3.229305 0.000000 0.000000 0.000000
-0.007472 59.995152 6.240074 10.317394 0.204916 5.914239 0.000000 0.000000 0.000000 -8.464653 3.009018 -0.832861 -1.842977 3.041431 -1.001374 5.000000 0.000000 0.000000 28.634118 4.995993 -9.739962 -22.411306 -10.363681 1.097761 75.039670 24.175208 59.766683 0.000000 0.000000 0.000000 3.999591 -4.606315 -6.329718 13.498884 4.923295 3.965222 -61.841523 -13.113011 -54.793688 0.000000 0.000000 0.000000 -19.680611 1.376732 -13.764790 16.689931 6.678843 8.393845 0.000000 0.000000 0.000000 -2.879657 -3.112722 0.536200 2.268493 2.566353 -1.682342 0.000000 0.000000 0.000000
-0.007050 59.994595 7.093425 10.536338 0.255921 6.893143 0.000000 0.000000 0.000000 -8.040381 3.407038 -0.849064 -1.237911 3.869255 -0.593747 5.000000 0.000000 0.000000 27.741161 3.913596 -8.612277 -21.958327 -7.703271 0.996105 0.000000 0.000000 0.000000 0.000000 0.000000 0.000000 3.045850 -4.732481 -4.994829 13.782631 5.582324 2.670748 -59.536319 -14.188990 -55.219475 0.000000 0.000000 0.000000 -17.417924 1.150227 -14.127451 14.853924 5.591117 8.109677 0.000000 0.000000 0.000000 -0.372299 -3.819885 0.017279 2.251787 2.692837 -1.169062 0.000000 0.000000 0.000000
-0.006875 59.994542 8.343534 8.629256 0.416227 7.073936 0.000000 0.000000 0.000000 -6.803116 3.169055 -1.221191 -0.462374 4.046588 -0.062170 5.000000 0.000000 0.000000 23.344567 -1.739824 -1.607506 -17.559227 1.316181 -2.197224 0.000000 0.000000 0.000000 0.000000 0.000000 0.000000 2.013888 -4.730201 -1.716854 12.587344 5.327546 -0.379862 -40.180743 -21.298077 -57.510813 0.000000 0.000000 0.000000 -13.237643 0.660424 -14.060639 10.976967 3.146927 6.687134 0.000000 0.000000 0.000000 3.523906 -4.806074 0.064932 -0.014932 3.594363 -1.251713 0.000000 0.000000 0.000000
